<?xml version="1.0" standalone="no"?>
<!DOCTYPE svg PUBLIC "-//W3C//DTD SVG 20010904//EN"
 "http://www.w3.org/TR/2001/REC-SVG-20010904/DTD/svg10.dtd">
<svg version="1.0" xmlns="http://www.w3.org/2000/svg"
 width="700.000000pt" height="700.000000pt" viewBox="0 0 700.000000 700.000000"
 preserveAspectRatio="xMidYMid meet">
<metadata>
Created by potrace 1.11, written by Peter Selinger 2001-2013
</metadata>
<g transform="translate(0.000000,700.000000) scale(0.100000,-0.100000)"
fill="#000000" stroke="none">
<path d="M1384 5080 c0 -309 2 -350 16 -351 8 0 452 -1 987 -1 l972 -1 856
-858 c471 -473 859 -859 863 -859 4 0 276 269 603 599 328 329 600 601 605
604 5 3 9 -542 9 -1316 l0 -1322 353 -2 352 -2 0 1927 0 1927 -253 0 -253 0
-704 -707 c-387 -390 -708 -708 -712 -708 -5 0 -327 320 -715 710 l-707 710
-1136 0 -1136 0 0 -350z"/>
<path d="M17 5406 c-2 -10 -1 -3791 2 -3823 1 -10 78 -13 351 -13 l350 0 0
103 c3 1084 -1 3731 -5 3736 -12 11 -694 8 -698 -3z"/>
<path d="M3155 3250 c0 -529 -2 -965 -5 -968 -3 -4 -401 -7 -885 -7 l-880 0 0
-350 0 -350 1230 0 1230 0 0 952 0 952 -55 59 c-30 32 -116 123 -190 202 -74
79 -164 175 -200 213 -36 38 -106 112 -155 164 l-91 95 1 -962z"/>
</g>
</svg>
